<svg xmlns="http://www.w3.org/2000/svg" xmlns:xlink="http://www.w3.org/1999/xlink" width="500" zoomAndPan="magnify" viewBox="0 0 375 374.999991" height="500" preserveAspectRatio="xMidYMid meet" version="1.0"><defs><g/><clipPath id="cde172eac1"><path d="M 130.65625 157.066406 L 313.65625 157.066406 L 313.65625 195.316406 L 130.65625 195.316406 Z M 130.65625 157.066406 " clip-rule="nonzero"/></clipPath><clipPath id="87106ca1a0"><path d="M 66.011719 90 L 249 90 L 249 136 L 66.011719 136 Z M 66.011719 90 " clip-rule="nonzero"/></clipPath><clipPath id="248d75e4bd"><path d="M 85.800781 37.5 L 293.871094 37.5 L 293.871094 245.570312 L 85.800781 245.570312 Z M 85.800781 37.5 " clip-rule="nonzero"/></clipPath><clipPath id="c2043cc654"><path d="M 189.835938 37.5 C 132.378906 37.5 85.800781 84.078125 85.800781 141.535156 C 85.800781 198.992188 132.378906 245.570312 189.835938 245.570312 C 247.292969 245.570312 293.871094 198.992188 293.871094 141.535156 C 293.871094 84.078125 247.292969 37.5 189.835938 37.5 Z M 189.835938 37.5 " clip-rule="nonzero"/></clipPath><clipPath id="b013367912"><path d="M 70.832031 104 L 253.832031 104 L 253.832031 150 L 70.832031 150 Z M 70.832031 104 " clip-rule="nonzero"/></clipPath><clipPath id="b53506e4aa"><path d="M 125.832031 141.542969 L 308.832031 141.542969 L 308.832031 179.792969 L 125.832031 179.792969 Z M 125.832031 141.542969 " clip-rule="nonzero"/></clipPath></defs><g clip-path="url(#cde172eac1)"><path fill="#302f2f" d="M 206.875 169.675781 C 203.929688 169.675781 201.023438 168.957031 198.421875 167.601562 L 190.605469 161.234375 C 187.214844 158.46875 182.925781 157.042969 178.554688 157.195312 L 132.742188 161.265625 C 131.582031 161.304688 130.65625 162.261719 130.65625 163.378906 C 130.65625 164.5 131.582031 165.386719 132.742188 165.34375 L 173.449219 163.367188 C 175.054688 163.3125 176.367188 164.472656 176.367188 165.953125 C 176.367188 167.433594 175.054688 168.652344 173.449219 168.679688 L 132.742188 169.84375 C 131.582031 169.855469 130.65625 170.78125 130.65625 171.902344 C 130.65625 173.023438 131.582031 173.921875 132.742188 173.921875 L 173.449219 173.507812 C 175.054688 173.496094 176.367188 174.683594 176.367188 176.164062 C 176.367188 177.644531 175.054688 178.835938 173.449219 178.820312 L 132.742188 178.40625 C 131.582031 178.421875 130.65625 179.320312 130.65625 180.441406 C 130.65625 181.5625 131.582031 182.488281 132.742188 182.515625 L 173.449219 183.675781 C 175.054688 183.707031 176.367188 184.921875 176.367188 186.402344 C 176.367188 187.882812 175.054688 189.046875 173.449219 188.992188 L 132.742188 187.011719 C 131.582031 186.96875 130.65625 187.855469 130.65625 188.976562 C 130.65625 190.097656 131.582031 191.050781 132.742188 191.09375 L 178.554688 195.160156 C 182.925781 195.3125 187.199219 193.875 190.605469 191.121094 L 198.421875 184.757812 C 201.035156 183.386719 203.929688 182.679688 206.875 182.679688 C 206.875 182.679688 250.609375 179.71875 292.820312 185.324219 C 292.820312 185.324219 314.019531 189.65625 314.019531 176.191406 C 314.019531 162.730469 292.820312 167.0625 292.820312 167.0625 C 250.609375 172.636719 206.875 169.675781 206.875 169.675781 Z M 206.875 169.675781 " fill-opacity="1" fill-rule="nonzero"/></g><g clip-path="url(#87106ca1a0)"><path fill="#302f2f" d="M 183.070312 119.175781 C 186.652344 124.996094 191.421875 136.960938 212.316406 135.058594 C 232.476562 133.21875 248.332031 124.140625 248.980469 113.996094 C 248.984375 114.125 248.996094 114.25 248.992188 114.378906 C 248.992188 114.273438 249 114.167969 248.996094 114.0625 C 249.003906 113.875 248.996094 113.683594 248.992188 113.492188 C 248.996094 113.289062 249.003906 113.089844 248.996094 112.886719 C 249.003906 112.710938 248.996094 112.539062 248.992188 112.363281 C 248.996094 112.179688 249.003906 111.992188 248.996094 111.808594 C 249.003906 111.648438 248.992188 111.484375 248.992188 111.324219 C 248.992188 111.464844 248.976562 111.605469 248.96875 111.746094 C 248.226562 102.15625 232.410156 92.421875 212.316406 90.699219 C 191.421875 88.910156 187.019531 100.410156 183.070312 105.621094 C 180.148438 109.472656 174.015625 109.105469 174.015625 109.105469 C 174.015625 109.105469 168.960938 108.839844 158.191406 108.011719 C 147.878906 107.21875 93.910156 102.671875 84.117188 102.671875 C 74.917969 102.671875 66.339844 101.617188 65.695312 110.246094 C 65.6875 110.144531 65.671875 110.050781 65.667969 109.953125 L 65.664062 109.777344 C 65.65625 110.109375 65.65625 110.457031 65.667969 110.816406 C 65.65625 111.199219 65.648438 111.597656 65.667969 112.023438 L 65.671875 112.0625 C 65.664062 112.28125 65.65625 112.496094 65.660156 112.726562 C 65.664062 112.5625 65.679688 112.40625 65.6875 112.246094 C 66.34375 122.53125 82.742188 120.476562 82.742188 120.476562 C 82.742188 120.476562 147.359375 117.152344 158.128906 116.367188 C 169.78125 115.515625 174.015625 115.40625 174.015625 115.40625 C 174.015625 115.40625 180.480469 114.976562 183.070312 119.175781 " fill-opacity="1" fill-rule="nonzero"/></g><g clip-path="url(#248d75e4bd)"><g clip-path="url(#c2043cc654)"><path fill="#302f2f" d="M 85.800781 37.5 L 293.871094 37.5 L 293.871094 245.570312 L 85.800781 245.570312 Z M 85.800781 37.5 " fill-opacity="1" fill-rule="nonzero"/></g></g><g clip-path="url(#b013367912)"><path fill="#f6f6f6" d="M 187.894531 133.59375 C 191.476562 139.417969 196.246094 151.378906 217.140625 149.476562 C 237.300781 147.636719 253.15625 138.5625 253.804688 128.414062 C 253.808594 128.542969 253.820312 128.671875 253.816406 128.800781 C 253.816406 128.691406 253.824219 128.589844 253.820312 128.484375 C 253.828125 128.292969 253.820312 128.101562 253.816406 127.910156 C 253.820312 127.707031 253.828125 127.507812 253.820312 127.308594 C 253.828125 127.128906 253.820312 126.957031 253.816406 126.78125 C 253.820312 126.597656 253.828125 126.410156 253.820312 126.226562 C 253.828125 126.066406 253.816406 125.90625 253.816406 125.742188 C 253.816406 125.882812 253.800781 126.023438 253.792969 126.164062 C 253.050781 116.574219 237.234375 106.839844 217.140625 105.121094 C 196.246094 103.328125 191.84375 114.832031 187.894531 120.042969 C 184.972656 123.890625 178.839844 123.523438 178.839844 123.523438 C 178.839844 123.523438 173.785156 123.257812 163.015625 122.429688 C 152.703125 121.636719 98.734375 117.089844 88.941406 117.089844 C 79.742188 117.089844 71.164062 116.039062 70.519531 124.664062 C 70.511719 124.5625 70.496094 124.46875 70.492188 124.371094 L 70.488281 124.195312 C 70.480469 124.527344 70.480469 124.875 70.492188 125.234375 C 70.480469 125.621094 70.472656 126.019531 70.492188 126.441406 L 70.496094 126.484375 C 70.488281 126.699219 70.480469 126.917969 70.484375 127.144531 C 70.488281 126.980469 70.503906 126.824219 70.511719 126.664062 C 71.167969 136.949219 87.566406 134.894531 87.566406 134.894531 C 87.566406 134.894531 152.183594 131.574219 162.953125 130.785156 C 174.605469 129.933594 178.839844 129.828125 178.839844 129.828125 C 178.839844 129.828125 185.304688 129.394531 187.894531 133.59375 " fill-opacity="1" fill-rule="nonzero"/></g><g clip-path="url(#b53506e4aa)"><path fill="#f6f6f6" d="M 202.050781 154.15625 C 199.105469 154.15625 196.199219 153.4375 193.597656 152.078125 L 185.78125 145.714844 C 182.390625 142.949219 178.101562 141.523438 173.730469 141.675781 L 127.917969 145.742188 C 126.757812 145.785156 125.832031 146.738281 125.832031 147.859375 C 125.832031 148.980469 126.757812 149.867188 127.917969 149.824219 L 168.625 147.847656 C 170.230469 147.789062 171.542969 148.953125 171.542969 150.433594 C 171.542969 151.914062 170.230469 153.132812 168.625 153.160156 L 127.917969 154.320312 C 126.757812 154.335938 125.832031 155.261719 125.832031 156.382812 C 125.832031 157.503906 126.757812 158.402344 127.917969 158.402344 L 168.625 157.988281 C 170.230469 157.972656 171.542969 159.164062 171.542969 160.644531 C 171.542969 162.125 170.230469 163.3125 168.625 163.300781 L 127.917969 162.886719 C 126.757812 162.898438 125.832031 163.796875 125.832031 164.917969 C 125.832031 166.039062 126.757812 166.96875 127.917969 166.996094 L 168.625 168.15625 C 170.230469 168.183594 171.542969 169.402344 171.542969 170.882812 C 171.542969 172.363281 170.230469 173.523438 168.625 173.46875 L 127.917969 171.492188 C 126.757812 171.449219 125.832031 172.335938 125.832031 173.457031 C 125.832031 174.578125 126.757812 175.53125 127.917969 175.574219 L 173.730469 179.640625 C 178.101562 179.792969 182.375 178.355469 185.78125 175.601562 L 193.597656 169.234375 C 196.210938 167.867188 199.105469 167.160156 202.050781 167.160156 C 202.050781 167.160156 245.785156 164.199219 287.996094 169.804688 C 287.996094 169.804688 309.195312 174.132812 309.195312 160.671875 C 309.195312 147.210938 287.996094 151.539062 287.996094 151.539062 C 245.785156 157.117188 202.050781 154.15625 202.050781 154.15625 Z M 202.050781 154.15625 " fill-opacity="1" fill-rule="nonzero"/></g><g fill="#302f2f" fill-opacity="1"><g transform="translate(93.012651, 302.663854)"><g><path d="M 17.195312 0.539062 C 26.121094 0.539062 32.144531 -6.230469 31.980469 -15.78125 L 16.195312 -15.78125 L 16.195312 -12.292969 L 28.03125 -12.292969 C 27.285156 -6.8125 23.132812 -3.113281 17.277344 -3.113281 C 10.757812 -3.113281 6.148438 -7.808594 6.148438 -14.535156 C 6.148438 -21.265625 10.714844 -25.957031 17.234375 -25.957031 C 21.71875 -25.957031 25.292969 -23.753906 27.121094 -20.019531 L 31.105469 -20.019531 C 29.238281 -25.75 23.753906 -29.613281 17.109375 -29.613281 C 8.597656 -29.613281 2.410156 -23.257812 2.410156 -14.535156 C 2.410156 -5.773438 8.636719 0.539062 17.195312 0.539062 Z M 17.195312 0.539062 "/></g></g></g><g fill="#302f2f" fill-opacity="1"><g transform="translate(127.264003, 302.663854)"><g><path d="M 17.441406 0.539062 C 26.289062 0.539062 32.519531 -5.691406 32.519531 -14.535156 C 32.519531 -23.382812 26.289062 -29.613281 17.441406 -29.613281 C 8.597656 -29.613281 2.410156 -23.382812 2.410156 -14.535156 C 2.410156 -5.691406 8.597656 0.539062 17.441406 0.539062 Z M 6.148438 -14.535156 C 6.148438 -21.304688 10.757812 -25.957031 17.441406 -25.957031 C 24.128906 -25.957031 28.738281 -21.304688 28.738281 -14.535156 C 28.738281 -7.765625 24.128906 -3.113281 17.441406 -3.113281 C 10.757812 -3.113281 6.148438 -7.765625 6.148438 -14.535156 Z M 6.148438 -14.535156 "/></g></g></g><g fill="#302f2f" fill-opacity="1"><g transform="translate(162.138126, 302.663854)"><g><path d="M 4.234375 0 L 7.890625 0 L 7.890625 -12.25 L 19.808594 -12.25 L 19.808594 -15.617188 L 7.890625 -15.617188 L 7.890625 -25.664062 L 20.890625 -25.664062 L 20.890625 -29.070312 L 4.234375 -29.070312 Z M 4.234375 0 "/></g></g></g><g fill="#302f2f" fill-opacity="1"><g transform="translate(185.304498, 302.663854)"><g><path d="M 17.441406 0.539062 C 26.289062 0.539062 32.519531 -5.691406 32.519531 -14.535156 C 32.519531 -23.382812 26.289062 -29.613281 17.441406 -29.613281 C 8.597656 -29.613281 2.410156 -23.382812 2.410156 -14.535156 C 2.410156 -5.691406 8.597656 0.539062 17.441406 0.539062 Z M 6.148438 -14.535156 C 6.148438 -21.304688 10.757812 -25.957031 17.441406 -25.957031 C 24.128906 -25.957031 28.738281 -21.304688 28.738281 -14.535156 C 28.738281 -7.765625 24.128906 -3.113281 17.441406 -3.113281 C 10.757812 -3.113281 6.148438 -7.765625 6.148438 -14.535156 Z M 6.148438 -14.535156 "/></g></g></g><g fill="#302f2f" fill-opacity="1"><g transform="translate(220.17862, 302.663854)"><g><path d="M 17.441406 0.539062 C 26.289062 0.539062 32.519531 -5.691406 32.519531 -14.535156 C 32.519531 -23.382812 26.289062 -29.613281 17.441406 -29.613281 C 8.597656 -29.613281 2.410156 -23.382812 2.410156 -14.535156 C 2.410156 -5.691406 8.597656 0.539062 17.441406 0.539062 Z M 6.148438 -14.535156 C 6.148438 -21.304688 10.757812 -25.957031 17.441406 -25.957031 C 24.128906 -25.957031 28.738281 -21.304688 28.738281 -14.535156 C 28.738281 -7.765625 24.128906 -3.113281 17.441406 -3.113281 C 10.757812 -3.113281 6.148438 -7.765625 6.148438 -14.535156 Z M 6.148438 -14.535156 "/></g></g></g><g fill="#302f2f" fill-opacity="1"><g transform="translate(255.052743, 302.663854)"><g><path d="M 4.234375 0 L 14.285156 0 C 23.214844 0 29.195312 -5.9375 29.195312 -14.535156 C 29.195312 -23.132812 23.214844 -29.070312 14.285156 -29.070312 L 4.234375 -29.070312 Z M 7.890625 -3.488281 L 7.890625 -25.582031 L 14.121094 -25.582031 C 20.890625 -25.582031 25.457031 -21.140625 25.457031 -14.535156 C 25.457031 -7.933594 20.929688 -3.488281 14.285156 -3.488281 Z M 7.890625 -3.488281 "/></g></g></g><g fill="#302f2f" fill-opacity="1"><g transform="translate(13.132775, 337.193047)"><g><path d="M 1.773438 0 L 5.128906 0 L 5.128906 -4.601562 L 7.347656 -4.601562 L 9.984375 0 L 13.871094 0 L 10.808594 -5.128906 C 12.582031 -5.910156 13.617188 -7.515625 13.617188 -9.691406 C 13.617188 -12.835938 11.464844 -14.777344 8.085938 -14.777344 L 1.773438 -14.777344 Z M 5.085938 -7.429688 L 5.085938 -11.90625 L 7.640625 -11.90625 C 9.289062 -11.90625 10.21875 -11.105469 10.21875 -9.667969 C 10.21875 -8.234375 9.289062 -7.429688 7.640625 -7.429688 Z M 5.085938 -7.429688 "/></g></g></g><g fill="#302f2f" fill-opacity="1"><g transform="translate(34.425372, 337.193047)"><g><path d="M 1.773438 0 L 11.714844 0 L 11.714844 -2.851562 L 5.109375 -2.851562 L 5.109375 -6.078125 L 10.914062 -6.078125 L 10.914062 -8.886719 L 5.109375 -8.886719 L 5.109375 -11.949219 L 11.484375 -11.949219 L 11.484375 -14.777344 L 1.773438 -14.777344 Z M 1.773438 0 "/></g></g></g><g fill="#302f2f" fill-opacity="1"><g transform="translate(53.650736, 337.193047)"><g><path d="M 6.925781 0.296875 C 10.429688 0.296875 12.582031 -1.371094 12.582031 -4.160156 C 12.582031 -6.503906 11.039062 -7.894531 7.367188 -8.761719 C 5.109375 -9.289062 4.328125 -9.859375 4.328125 -10.765625 C 4.328125 -11.738281 5.191406 -12.328125 6.609375 -12.328125 C 8.148438 -12.328125 9.078125 -11.527344 9.078125 -10.195312 L 12.308594 -10.195312 C 12.308594 -13.171875 10.070312 -15.074219 6.566406 -15.074219 C 3.167969 -15.074219 1.054688 -13.40625 1.054688 -10.703125 C 1.054688 -8.296875 2.679688 -6.859375 6.144531 -6.121094 C 8.234375 -5.679688 9.183594 -5.066406 9.183594 -4.03125 C 9.183594 -3.039062 8.296875 -2.46875 6.902344 -2.46875 C 5.277344 -2.46875 4.222656 -3.292969 4.222656 -4.707031 L 0.929688 -4.707031 C 0.929688 -1.648438 3.207031 0.296875 6.925781 0.296875 Z M 6.925781 0.296875 "/></g></g></g><g fill="#302f2f" fill-opacity="1"><g transform="translate(73.614398, 337.193047)"><g><path d="M 5.320312 0 L 8.675781 0 L 8.675781 -11.632812 L 13.363281 -11.632812 L 13.363281 -14.777344 L 0.632812 -14.777344 L 0.632812 -11.632812 L 5.320312 -11.632812 Z M 5.320312 0 "/></g></g></g><g fill="#302f2f" fill-opacity="1"><g transform="translate(94.042135, 337.193047)"><g><path d="M 0.191406 0 L 3.777344 0 L 4.769531 -2.554688 L 10.640625 -2.554688 L 11.632812 0 L 15.222656 0 L 9.351562 -14.777344 L 6.058594 -14.777344 Z M 5.636719 -5.191406 L 7.707031 -10.597656 L 9.796875 -5.191406 Z M 5.636719 -5.191406 "/></g></g></g><g fill="#302f2f" fill-opacity="1"><g transform="translate(115.883171, 337.193047)"><g><path d="M 7.8125 0.296875 C 11.652344 0.296875 13.996094 -2.109375 13.996094 -6.078125 L 13.996094 -14.777344 L 10.640625 -14.777344 L 10.640625 -6.3125 C 10.640625 -4.054688 9.691406 -2.890625 7.8125 -2.890625 C 5.933594 -2.890625 4.980469 -4.054688 4.980469 -6.3125 L 4.980469 -14.777344 L 1.625 -14.777344 L 1.625 -6.078125 C 1.625 -2.109375 3.96875 0.296875 7.8125 0.296875 Z M 7.8125 0.296875 "/></g></g></g><g fill="#302f2f" fill-opacity="1"><g transform="translate(137.935158, 337.193047)"><g><path d="M 1.773438 0 L 5.128906 0 L 5.128906 -4.601562 L 7.347656 -4.601562 L 9.984375 0 L 13.871094 0 L 10.808594 -5.128906 C 12.582031 -5.910156 13.617188 -7.515625 13.617188 -9.691406 C 13.617188 -12.835938 11.464844 -14.777344 8.085938 -14.777344 L 1.773438 -14.777344 Z M 5.085938 -7.429688 L 5.085938 -11.90625 L 7.640625 -11.90625 C 9.289062 -11.90625 10.21875 -11.105469 10.21875 -9.667969 C 10.21875 -8.234375 9.289062 -7.429688 7.640625 -7.429688 Z M 5.085938 -7.429688 "/></g></g></g><g fill="#302f2f" fill-opacity="1"><g transform="translate(159.22775, 337.193047)"><g><path d="M 0.191406 0 L 3.777344 0 L 4.769531 -2.554688 L 10.640625 -2.554688 L 11.632812 0 L 15.222656 0 L 9.351562 -14.777344 L 6.058594 -14.777344 Z M 5.636719 -5.191406 L 7.707031 -10.597656 L 9.796875 -5.191406 Z M 5.636719 -5.191406 "/></g></g></g><g fill="#302f2f" fill-opacity="1"><g transform="translate(181.068786, 337.193047)"><g><path d="M 1.773438 0 L 5.109375 0 L 5.109375 -9.054688 L 11.632812 0 L 14.480469 0 L 14.480469 -14.777344 L 11.144531 -14.777344 L 11.144531 -5.785156 L 4.625 -14.777344 L 1.773438 -14.777344 Z M 1.773438 0 "/></g></g></g><g fill="#302f2f" fill-opacity="1"><g transform="translate(203.753605, 337.193047)"><g><path d="M 5.320312 0 L 8.675781 0 L 8.675781 -11.632812 L 13.363281 -11.632812 L 13.363281 -14.777344 L 0.632812 -14.777344 L 0.632812 -11.632812 L 5.320312 -11.632812 Z M 5.320312 0 "/></g></g></g><g fill="#302f2f" fill-opacity="1"><g transform="translate(224.181337, 337.193047)"><g><path d="M 6.925781 0.296875 C 10.429688 0.296875 12.582031 -1.371094 12.582031 -4.160156 C 12.582031 -6.503906 11.039062 -7.894531 7.367188 -8.761719 C 5.109375 -9.289062 4.328125 -9.859375 4.328125 -10.765625 C 4.328125 -11.738281 5.191406 -12.328125 6.609375 -12.328125 C 8.148438 -12.328125 9.078125 -11.527344 9.078125 -10.195312 L 12.308594 -10.195312 C 12.308594 -13.171875 10.070312 -15.074219 6.566406 -15.074219 C 3.167969 -15.074219 1.054688 -13.40625 1.054688 -10.703125 C 1.054688 -8.296875 2.679688 -6.859375 6.144531 -6.121094 C 8.234375 -5.679688 9.183594 -5.066406 9.183594 -4.03125 C 9.183594 -3.039062 8.296875 -2.46875 6.902344 -2.46875 C 5.277344 -2.46875 4.222656 -3.292969 4.222656 -4.707031 L 0.929688 -4.707031 C 0.929688 -1.648438 3.207031 0.296875 6.925781 0.296875 Z M 6.925781 0.296875 "/></g></g></g><g fill="#302f2f" fill-opacity="1"><g transform="translate(244.144994, 337.193047)"><g/></g></g><g fill="#302f2f" fill-opacity="1"><g transform="translate(255.544381, 337.193047)"><g><path d="M 6.269531 0.296875 C 7.917969 0.296875 9.351562 -0.125 10.511719 -0.867188 L 11.359375 0 L 14.902344 0 L 12.390625 -2.640625 C 13.238281 -3.84375 13.722656 -5.363281 13.765625 -7.113281 L 11 -7.113281 C 10.976562 -6.207031 10.765625 -5.382812 10.40625 -4.6875 L 8.253906 -6.945312 C 10.386719 -7.917969 11.503906 -9.375 11.503906 -11.167969 C 11.503906 -13.511719 9.585938 -15.074219 6.691406 -15.074219 C 3.84375 -15.074219 1.941406 -13.574219 1.941406 -11.359375 C 1.941406 -10.195312 2.46875 -9.160156 3.589844 -7.875 C 1.753906 -6.902344 0.800781 -5.550781 0.800781 -3.820312 C 0.800781 -1.289062 2.914062 0.296875 6.269531 0.296875 Z M 3.949219 -4.03125 C 3.949219 -4.8125 4.414062 -5.425781 5.445312 -5.910156 L 8.488281 -2.808594 C 7.875 -2.511719 7.15625 -2.34375 6.375 -2.34375 C 4.835938 -2.34375 3.949219 -2.976562 3.949219 -4.03125 Z M 4.960938 -11.167969 C 4.960938 -11.96875 5.617188 -12.457031 6.671875 -12.457031 C 7.789062 -12.457031 8.488281 -11.925781 8.488281 -11.039062 C 8.488281 -10.175781 7.832031 -9.480469 6.375 -8.929688 C 5.277344 -10.089844 4.960938 -10.617188 4.960938 -11.167969 Z M 4.960938 -11.167969 "/></g></g></g><g fill="#302f2f" fill-opacity="1"><g transform="translate(277.448708, 337.193047)"><g/></g></g><g fill="#302f2f" fill-opacity="1"><g transform="translate(288.848095, 337.193047)"><g><path d="M 1.773438 0 L 8.71875 0 C 11.714844 0 13.742188 -1.648438 13.742188 -4.136719 C 13.742188 -5.722656 12.917969 -6.988281 11.527344 -7.601562 C 12.644531 -8.253906 13.300781 -9.414062 13.300781 -10.808594 C 13.300781 -13.238281 11.378906 -14.777344 8.382812 -14.777344 L 1.773438 -14.777344 Z M 5.085938 -2.660156 L 5.085938 -6.207031 L 8.210938 -6.207031 C 9.542969 -6.207031 10.300781 -5.550781 10.300781 -4.433594 C 10.300781 -3.3125 9.542969 -2.660156 8.210938 -2.660156 Z M 5.085938 -8.761719 L 5.085938 -12.117188 L 7.875 -12.117188 C 9.160156 -12.117188 9.878906 -11.527344 9.878906 -10.449219 C 9.878906 -9.375 9.160156 -8.761719 7.875 -8.761719 Z M 5.085938 -8.761719 "/></g></g></g><g fill="#302f2f" fill-opacity="1"><g transform="translate(309.824271, 337.193047)"><g><path d="M 0.191406 0 L 3.777344 0 L 4.769531 -2.554688 L 10.640625 -2.554688 L 11.632812 0 L 15.222656 0 L 9.351562 -14.777344 L 6.058594 -14.777344 Z M 5.636719 -5.191406 L 7.707031 -10.597656 L 9.796875 -5.191406 Z M 5.636719 -5.191406 "/></g></g></g><g fill="#302f2f" fill-opacity="1"><g transform="translate(331.665307, 337.193047)"><g><path d="M 1.773438 0 L 5.128906 0 L 5.128906 -4.601562 L 7.347656 -4.601562 L 9.984375 0 L 13.871094 0 L 10.808594 -5.128906 C 12.582031 -5.910156 13.617188 -7.515625 13.617188 -9.691406 C 13.617188 -12.835938 11.464844 -14.777344 8.085938 -14.777344 L 1.773438 -14.777344 Z M 5.085938 -7.429688 L 5.085938 -11.90625 L 7.640625 -11.90625 C 9.289062 -11.90625 10.21875 -11.105469 10.21875 -9.667969 C 10.21875 -8.234375 9.289062 -7.429688 7.640625 -7.429688 Z M 5.085938 -7.429688 "/></g></g></g><g fill="#302f2f" fill-opacity="1"><g transform="translate(352.957919, 337.193047)"><g><path d="M 6.925781 0.296875 C 10.429688 0.296875 12.582031 -1.371094 12.582031 -4.160156 C 12.582031 -6.503906 11.039062 -7.894531 7.367188 -8.761719 C 5.109375 -9.289062 4.328125 -9.859375 4.328125 -10.765625 C 4.328125 -11.738281 5.191406 -12.328125 6.609375 -12.328125 C 8.148438 -12.328125 9.078125 -11.527344 9.078125 -10.195312 L 12.308594 -10.195312 C 12.308594 -13.171875 10.070312 -15.074219 6.566406 -15.074219 C 3.167969 -15.074219 1.054688 -13.40625 1.054688 -10.703125 C 1.054688 -8.296875 2.679688 -6.859375 6.144531 -6.121094 C 8.234375 -5.679688 9.183594 -5.066406 9.183594 -4.03125 C 9.183594 -3.039062 8.296875 -2.46875 6.902344 -2.46875 C 5.277344 -2.46875 4.222656 -3.292969 4.222656 -4.707031 L 0.929688 -4.707031 C 0.929688 -1.648438 3.207031 0.296875 6.925781 0.296875 Z M 6.925781 0.296875 "/></g></g></g></svg>